<?xml version="1.0" encoding="utf-8"?>
<!-- Generator: Adobe Illustrator 19.0.0, SVG Export Plug-In . SVG Version: 6.00 Build 0)  -->
<svg version="1.1" id="Camada_1" xmlns="http://www.w3.org/2000/svg" xmlns:xlink="http://www.w3.org/1999/xlink" x="0px" y="0px"
	 viewBox="0 0 30 30" style="enable-background:new 0 0 30 30;" xml:space="preserve">
<style type="text/css">
	.st0{fill:none;stroke:#5D6AE2;stroke-width:2;stroke-miterlimit:10;}
	.st1{fill:#5D6AE2;}
</style>
<g id="XMLID_8_">
	<g id="XMLID_15_">
		<circle id="XMLID_6_" class="st0" cx="15" cy="15" r="13.9"/>
	</g>
	<circle id="XMLID_5_" class="st0" cx="8.8" cy="12.5" r="3.2"/>
	<path id="XMLID_4_" class="st1" d="M11,10.2c-0.6-0.6-1.4-0.9-2.2-0.9c-0.6,0-1.1,0.2-1.6,0.4C7.1,9.9,7,10,7,10.1
		c-0.1,0.7,0.8,1.3,1.9,1.4c1.1,0.1,2.1-0.3,2.1-1C11.1,10.4,11,10.3,11,10.2z"/>
	<g id="XMLID_10_">
		<circle id="XMLID_3_" class="st0" cx="21.2" cy="12.5" r="3.2"/>
		<path id="XMLID_2_" class="st1" d="M23.4,10.2c-0.6-0.6-1.4-0.9-2.2-0.9c-0.6,0-1.1,0.2-1.6,0.4c-0.1,0.1-0.2,0.3-0.2,0.4
			c-0.1,0.7,0.8,1.3,1.9,1.4c1.1,0.1,2.1-0.3,2.1-1C23.5,10.4,23.5,10.3,23.4,10.2z"/>
	</g>
	<path id="XMLID_1_" class="st1" d="M20.2,18.2c-0.7-0.7-1.6-1.1-2.6-1.4c-1-0.2-2-0.2-3-0.1c-1,0.2-1.9,0.6-2.7,1.1
		c-0.9,0.6-1.6,1.3-2,2.1c-0.1,0.1-0.1,0.3,0,0.4c0.1,0.1,0.1,0.1,0.2,0.1c0,0,0.1,0,0.1,0l0.3-0.2c0.7-0.4,1.4-0.7,2.1-1
		c0.8-0.3,1.6-0.5,2.3-0.7c0.8-0.2,1.6-0.2,2.4-0.2c0.7,0,1.5,0.1,2.5,0.3c0.1,0,0.3,0,0.3-0.2C20.3,18.4,20.3,18.3,20.2,18.2z"/>
</g>
</svg>
