<?xml version="1.0" encoding="utf-8"?>
<!-- Generator: Adobe Illustrator 19.0.0, SVG Export Plug-In . SVG Version: 6.00 Build 0)  -->
<svg version="1.1" id="Camada_1" xmlns="http://www.w3.org/2000/svg" xmlns:xlink="http://www.w3.org/1999/xlink" x="0px" y="0px"
	 viewBox="0 0 30 30" style="enable-background:new 0 0 30 30;" xml:space="preserve">
<style type="text/css">
	.st0{fill:none;stroke:#5D6AE2;stroke-width:2;stroke-miterlimit:10;}
	.st1{fill:#5D6AE2;}
</style>
<g id="XMLID_8_">
	<g id="XMLID_17_">
		<circle id="XMLID_6_" class="st0" cx="15" cy="15" r="13.9"/>
	</g>
	<g id="XMLID_12_">
		<g id="XMLID_15_">
			<ellipse id="XMLID_5_" class="st1" cx="9.9" cy="12.4" rx="1" ry="1.7"/>
		</g>
		<g id="XMLID_13_">
			<ellipse id="XMLID_4_" class="st1" cx="20.1" cy="12.4" rx="1" ry="1.7"/>
		</g>
	</g>
	<path id="XMLID_3_" class="st1" d="M20.7,21.2c0.4,0.3,0.9,0,0.7-0.5c-1-2.6-3.5-4.4-6.5-4.4c-2.9,0-5.3,1.7-6.4,4.2
		C8.4,21,9,21.4,9.3,21C11.3,19.1,15.7,16.3,20.7,21.2z"/>
	
		<rect id="XMLID_2_" x="10.1" y="6.7" transform="matrix(0.7071 -0.7071 0.7071 0.7071 -3.1703 10.2247)" class="st1" width="1.3" height="4.4"/>
	
		<rect id="XMLID_1_" x="18.6" y="6.7" transform="matrix(0.7071 0.7071 -0.7071 0.7071 11.9571 -10.9886)" class="st1" width="1.3" height="4.4"/>
</g>
</svg>
