<?xml version="1.0" encoding="utf-8"?>
<!-- Generator: Adobe Illustrator 19.0.0, SVG Export Plug-In . SVG Version: 6.00 Build 0)  -->
<svg version="1.1" id="Camada_1" xmlns="http://www.w3.org/2000/svg" xmlns:xlink="http://www.w3.org/1999/xlink" x="0px" y="0px"
	 viewBox="0 0 30 30" style="enable-background:new 0 0 30 30;" xml:space="preserve">
<style type="text/css">
	.st0{fill:none;stroke:#5D6AE2;stroke-width:2;stroke-miterlimit:10;}
	.st1{fill:#5D6AE2;}
</style>
<g id="XMLID_7_">
	<g id="XMLID_18_">
		<circle id="XMLID_6_" class="st0" cx="15" cy="15" r="13.8"/>
	</g>
	<g id="XMLID_12_">
		<g id="XMLID_13_">
			<g id="XMLID_16_">
				<ellipse id="XMLID_5_" class="st1" cx="9.9" cy="11.7" rx="1" ry="1.7"/>
			</g>
			<g id="XMLID_14_">
				<ellipse id="XMLID_4_" class="st1" cx="20.1" cy="11.7" rx="1" ry="1.7"/>
			</g>
		</g>
	</g>
	<g id="XMLID_9_">
		<path id="XMLID_3_" class="st1" d="M23.1,8.8c-0.1,0-0.3-0.1-0.4-0.1c-0.3-0.1-0.6-0.2-0.9-0.3c-0.4-0.1-0.8-0.3-1.2-0.5
			c-0.4-0.2-0.7-0.4-1-0.7c-0.4-0.3-0.7-0.6-1-0.9c0,0,0,0-0.1,0c0,0,0,0,0,0.1c0,0.5,0.2,1,0.5,1.4c0.3,0.4,0.7,0.7,1.2,1
			c0.4,0.2,0.9,0.4,1.4,0.4c0,0,0,0,0.1,0c0.5,0,1-0.1,1.5-0.3C23.2,8.9,23.2,8.9,23.1,8.8C23.2,8.8,23.1,8.8,23.1,8.8z"/>
		<path id="XMLID_2_" class="st1" d="M6.9,8.8c0.1,0,0.3-0.1,0.4-0.1c0.3-0.1,0.6-0.2,0.9-0.3C8.6,8.3,9,8.1,9.4,7.9
			c0.4-0.2,0.7-0.4,1-0.7c0.4-0.3,0.7-0.6,1-0.9c0,0,0,0,0.1,0c0,0,0,0,0,0.1c0,0.5-0.2,1-0.5,1.4c-0.3,0.4-0.7,0.7-1.2,1
			C9.4,9,8.9,9.1,8.4,9.1c0,0,0,0-0.1,0c-0.5,0-1-0.1-1.5-0.3C6.8,8.9,6.8,8.9,6.9,8.8C6.8,8.8,6.9,8.8,6.9,8.8z"/>
	</g>
	<path id="XMLID_1_" class="st1" d="M9.8,20.9c-0.1,0-0.2-0.2-0.2-0.3c0-0.6,0.2-1.2,0.5-1.9c0.3-0.6,0.7-1.1,1.2-1.5
		c1-0.8,2.4-1.3,3.7-1.3c1.4,0,2.7,0.5,3.7,1.3c1,0.9,1.7,2.2,1.7,3.4c0,0.1-0.1,0.3-0.2,0.3c-0.1,0-0.2-0.2-0.3-0.3
		c-0.1-0.1-0.3-0.2-0.5-0.3c-0.3-0.2-0.6-0.4-1-0.6c-1.2-0.7-2.6-1-4-0.9c-0.9,0.1-1.8,0.3-2.6,0.8c-0.5,0.2-0.9,0.5-1.4,0.9
		C10.3,20.5,10,20.9,9.8,20.9C9.8,20.9,9.8,20.9,9.8,20.9z"/>
</g>
</svg>
