<?xml version="1.0" encoding="utf-8"?>
<!-- Generator: Adobe Illustrator 19.0.0, SVG Export Plug-In . SVG Version: 6.00 Build 0)  -->
<svg version="1.1" id="Camada_1" xmlns="http://www.w3.org/2000/svg" xmlns:xlink="http://www.w3.org/1999/xlink" x="0px" y="0px"
	 viewBox="0 0 30 30" style="enable-background:new 0 0 30 30;" xml:space="preserve">
<style type="text/css">
	.st0{fill:none;stroke:#5D6AE2;stroke-width:2;stroke-miterlimit:10;}
	.st1{fill:#5D6AE2;}
</style>
<g id="XMLID_5_">
	<g id="XMLID_10_">
		<circle id="XMLID_3_" class="st0" cx="15" cy="15" r="13.8"/>
	</g>
	<path id="XMLID_2_" class="st0" d="M9.1,17.8c0.3,3,2.8,5.2,5.9,5.2c3,0,5.5-2.3,5.9-5.2H9.1z"/>
	<path id="XMLID_1_" class="st1" d="M10.9,21.5c1.1,1,2.5,1.6,4.1,1.6c1.5,0,2.9-0.6,3.9-1.5l-0.1-0.1C14.9,19.5,11,21.4,10.9,21.5z
		"/>
	<path id="XMLID_563_" class="st1" d="M13.1,11C13.1,11,13.1,11,13.1,11c0-1.3-0.9-2.5-2.3-2.5c-1.1,0-1.7,0.8-2,1.5l0,0
		C8.6,9.3,8,8.5,6.9,8.5c-1.4,0-2.3,1.2-2.3,2.4c0,0,0,0,0,0c0,0.3,0,3.1,4.3,5.4v0c0,0,0,0,0,0c0,0,0,0,0,0c0,0,0,0,0,0
		c0,0,0,0,0,0v0C13.1,14.1,13.1,11.3,13.1,11z"/>
	<path id="XMLID_562_" class="st1" d="M25.5,11C25.5,11,25.5,11,25.5,11c0-1.3-0.9-2.5-2.3-2.5c-1.1,0-1.7,0.8-2,1.5l0,0
		c-0.2-0.7-0.9-1.5-2-1.5c-1.4,0-2.3,1.2-2.3,2.4c0,0,0,0,0,0c0,0.3,0,3.1,4.3,5.4v0c0,0,0,0,0,0c0,0,0,0,0,0c0,0,0,0,0,0
		c0,0,0,0,0,0v0C25.5,14.1,25.5,11.3,25.5,11z"/>
</g>
</svg>
