<?xml version="1.0" encoding="utf-8"?>
<!-- Generator: Adobe Illustrator 19.0.0, SVG Export Plug-In . SVG Version: 6.00 Build 0)  -->
<svg version="1.1" id="Camada_1" xmlns="http://www.w3.org/2000/svg" xmlns:xlink="http://www.w3.org/1999/xlink" x="0px" y="0px"
	 viewBox="0 0 30 30" style="enable-background:new 0 0 30 30;" xml:space="preserve">
<style type="text/css">
	.st0{fill:none;stroke:#5D6AE2;stroke-width:2;stroke-miterlimit:10;}
	.st1{fill:#5D6AE2;}
</style>
<g id="XMLID_7_">
	<g id="XMLID_15_">
		<circle id="XMLID_5_" class="st0" cx="15" cy="15.2" r="14"/>
	</g>
	<path id="XMLID_4_" class="st0" d="M5.6,16.5c0.5,4.7,4.5,8.4,9.4,8.4c4.9,0,8.9-3.7,9.4-8.4H5.6z"/>
	<path id="XMLID_3_" class="st1" d="M8.5,22.3c1.7,1.6,4,2.6,6.5,2.6c2.4,0,4.6-0.9,6.3-2.4l-0.1-0.2C14.9,19.2,8.6,22.2,8.5,22.3z"
		/>
	<g id="XMLID_8_">
		<g id="XMLID_11_">
			<path id="XMLID_2_" class="st1" d="M7.5,14c-0.2,0-0.4-0.1-0.5-0.2c-0.2-0.3-0.2-0.6,0.1-0.8l2-1.6l-2.1-1.2
				C6.8,10,6.7,9.6,6.9,9.3C7,9.1,7.4,9,7.7,9.1l2.8,1.7c0.2,0.1,0.3,0.3,0.3,0.5c0,0.2-0.1,0.4-0.2,0.5l-2.7,2.1
				C7.8,14,7.6,14,7.5,14z"/>
		</g>
		<g id="XMLID_9_">
			<path id="XMLID_1_" class="st1" d="M22.6,14c-0.1,0-0.3,0-0.4-0.1l-2.7-2.1c-0.2-0.1-0.2-0.3-0.2-0.5c0-0.2,0.1-0.4,0.3-0.5
				l2.8-1.7c0.3-0.2,0.6-0.1,0.8,0.2c0.2,0.3,0.1,0.6-0.2,0.8l-2.1,1.2l2,1.6c0.3,0.2,0.3,0.6,0.1,0.8C22.9,13.9,22.8,14,22.6,14z"
				/>
		</g>
	</g>
</g>
</svg>
