<?xml version="1.0" encoding="utf-8"?>
<!-- Generator: Adobe Illustrator 19.0.0, SVG Export Plug-In . SVG Version: 6.00 Build 0)  -->
<svg version="1.1" id="Camada_1" xmlns="http://www.w3.org/2000/svg" xmlns:xlink="http://www.w3.org/1999/xlink" x="0px" y="0px"
	 viewBox="0 0 30 30" style="enable-background:new 0 0 30 30;" xml:space="preserve">
<style type="text/css">
	.st0{fill:none;stroke:#5D6AE2;stroke-width:2;stroke-miterlimit:10;}
	.st1{fill:#5D6AE2;}
</style>
<g id="XMLID_9_">
	<g id="XMLID_20_">
		<circle id="XMLID_7_" class="st0" cx="15.1" cy="15.3" r="13.8"/>
	</g>
	<ellipse id="XMLID_6_" class="st0" cx="15.1" cy="18.6" rx="2.5" ry="4.2"/>
	<path id="XMLID_5_" class="st1" d="M17.2,20.8c-1.8-1-3.3-0.4-4.1,0.1c0.4,1.1,1.2,1.8,2,1.8C15.9,22.8,16.7,22,17.2,20.8z"/>
	<g id="XMLID_15_">
		<path id="XMLID_4_" class="st1" d="M10.8,15l-3.6,2l0.1,10c1.1,0.6,2.3,1.1,3.5,1.5V15z"/>
		<path id="XMLID_3_" class="st1" d="M19.3,15l3.6,2l-0.1,10c-1.1,0.6-2.3,1.1-3.5,1.5V15z"/>
	</g>
	<g id="XMLID_10_">
		<g id="XMLID_13_">
			<path id="XMLID_2_" class="st1" d="M7.6,15.3c-0.2,0-0.3-0.1-0.5-0.2C7,14.8,7,14.4,7.3,14.2l2-1.5l-2.1-1.2
				c-0.3-0.2-0.4-0.5-0.2-0.8c0.2-0.3,0.5-0.4,0.8-0.2l2.8,1.6c0.2,0.1,0.3,0.3,0.3,0.5c0,0.2-0.1,0.4-0.2,0.5L8,15.1
				C7.9,15.2,7.7,15.3,7.6,15.3z"/>
		</g>
		<g id="XMLID_11_">
			<path id="XMLID_1_" class="st1" d="M22.5,15.3c-0.1,0-0.3,0-0.4-0.1l-2.7-2.1c-0.2-0.1-0.2-0.3-0.2-0.5c0-0.2,0.1-0.4,0.3-0.5
				l2.8-1.6c0.3-0.2,0.6-0.1,0.8,0.2c0.2,0.3,0.1,0.6-0.2,0.8l-2.1,1.2l2,1.5c0.3,0.2,0.3,0.6,0.1,0.8
				C22.8,15.2,22.7,15.3,22.5,15.3z"/>
		</g>
	</g>
</g>
</svg>
